<?xml version="1.0" encoding="utf-8"?>
<!-- Generator: Adobe Illustrator 21.0.2, SVG Export Plug-In . SVG Version: 6.00 Build 0)  -->
<svg version="1.1" id="Capa_1" xmlns="http://www.w3.org/2000/svg" xmlns:xlink="http://www.w3.org/1999/xlink" x="0px" y="0px"
	 viewBox="0 0 100 100" style="enable-background:new 0 0 100 100;" xml:space="preserve">
<style type="text/css">
	.st0{fill:#FF6666;}
</style>
<g>
	<path class="st0" d="M50,100c27.7,0,50-22.3,50-50S77.7,0,50,0S0,22.3,0,50S22.3,100,50,100z M22.3,44.2c0-1.9,1.6-3.5,3.5-3.5
		h14.8V25.8c0-1.9,1.6-3.5,3.5-3.5H56c1.9,0,3.5,1.6,3.5,3.5v14.8h14.8c1.9,0,3.5,1.6,3.5,3.5V56c0,1.9-1.6,3.5-3.5,3.5H59.7v14.8
		c0,1.9-1.6,3.5-3.5,3.5h-12c-1.9,0-3.5-1.6-3.5-3.5V59.7H25.8c-1.9,0-3.5-1.6-3.5-3.5V44.2z"/>
</g>
</svg>
