<?xml version="1.0" encoding="utf-8"?>
<!-- Generator: Adobe Illustrator 21.0.2, SVG Export Plug-In . SVG Version: 6.00 Build 0)  -->
<svg version="1.1" id="Capa_1" xmlns="http://www.w3.org/2000/svg" xmlns:xlink="http://www.w3.org/1999/xlink" x="0px" y="0px"
	 viewBox="0 0 100 100" style="enable-background:new 0 0 100 100;" xml:space="preserve">
<style type="text/css">
	.st0{fill:#00CC99;}
</style>
<path class="st0" d="M50,0C22.3,0,0,22.3,0,50s22.3,50,50,50s50-22.3,50-50S77.7,0,50,0z M78.2,49.4c-0.2,0.5-0.7,0.8-1.2,0.8h-5.8
	v25c0,0.7-0.6,1.3-1.3,1.3H55.7V57.6H44.3v18.9H30c-0.7,0-1.3-0.6-1.3-1.3v-25H23c-0.5,0-1-0.3-1.2-0.8c-0.2-0.5-0.1-1,0.2-1.4
	l27-27.9c0.5-0.5,1.4-0.5,1.9,0L78,48C78.4,48.4,78.5,48.9,78.2,49.4z"/>
</svg>
